<svg width="374" height="376" viewBox="0 0 374 376" fill="none" xmlns="http://www.w3.org/2000/svg">
<circle cx="197.5" cy="190.5" r="141.5" fill="#BFC3F4"/>
<g filter="url(#filter0_d_224_77)">
<rect x="1.97287" y="0.801783" width="171.373" height="118.502" rx="8.5" transform="matrix(0.91902 -0.386724 0.396225 0.921246 93.2271 191.545)" fill="black" stroke="white" stroke-width="3"/>
<rect x="1.97586" y="0.793616" width="170.947" height="21.6161" rx="3.5" transform="matrix(0.914252 -0.391811 0.402988 0.920889 93.9577 191.267)" fill="black" stroke="white" stroke-width="3"/>
<path d="M114.438 183.882L117.768 204.426L108.541 208.433L104.972 187.808L114.438 183.882Z" fill="white" stroke="white" stroke-width="3"/>
<path d="M136.322 174.77L139.653 195.314L130.425 199.321L126.856 178.695L136.322 174.77Z" fill="white" stroke="white" stroke-width="3"/>
<path d="M158.207 165.66L161.538 186.203L152.31 190.21L148.741 169.585L158.207 165.66Z" fill="white" stroke="white" stroke-width="3"/>
<path d="M178.355 156.769L181.685 177.313L172.457 181.32L168.889 160.694L178.355 156.769Z" fill="white" stroke="white" stroke-width="3"/>
<path d="M198.502 147.878L201.832 168.422L192.604 172.429L189.036 151.803L198.502 147.878Z" fill="white" stroke="white" stroke-width="3"/>
<path d="M218.649 138.987L221.979 159.531L212.752 163.538L209.183 142.913L218.649 138.987Z" fill="white" stroke="white" stroke-width="3"/>
<path d="M238.104 131.767L241.434 152.311L232.206 156.318L228.638 135.692L238.104 131.767Z" fill="white" stroke="white" stroke-width="3"/>
<path d="M247.322 127.142C248.6 126.522 250.146 125.806 251.46 125.293C251.494 125.322 251.532 125.356 251.576 125.398C251.95 125.755 252.438 126.385 253.01 127.287C254.139 129.068 255.404 131.6 256.555 134.244C257.703 136.881 258.712 139.565 259.345 141.627C259.663 142.666 259.872 143.5 259.963 144.071C259.966 144.09 259.966 144.108 259.968 144.125C259.557 144.33 258.94 144.62 258.145 144.973C256.892 145.53 255.344 146.188 253.832 146.82C252.321 147.452 250.852 148.054 249.761 148.499C249.731 148.511 249.7 148.523 249.67 148.536L245.881 127.854C246.276 127.655 246.771 127.409 247.322 127.142Z" fill="white" stroke="white" stroke-width="3"/>
<rect x="2.08988" y="0.355826" width="171.706" height="21.627" rx="8.5" transform="matrix(0.80767 -0.580106 0.585584 0.817324 79.8694 177.515)" fill="black" stroke="white" stroke-width="3"/>
<path d="M98.0822 165.467L105.644 184.919L97.5071 190.822L89.697 171.341L98.0822 165.467Z" fill="white" stroke="white" stroke-width="3"/>
<path d="M117.463 151.85L125.025 171.302L116.888 177.205L109.078 157.724L117.463 151.85Z" fill="white" stroke="white" stroke-width="3"/>
<path d="M136.844 138.234L144.406 157.685L136.269 163.589L128.459 144.108L136.844 138.234Z" fill="white" stroke="white" stroke-width="3"/>
<path d="M154.581 125.204L162.143 144.656L154.006 150.56L146.196 131.078L154.581 125.204Z" fill="white" stroke="white" stroke-width="3"/>
<path d="M172.318 112.174L179.879 131.626L171.742 137.53L163.932 118.048L172.318 112.174Z" fill="white" stroke="white" stroke-width="3"/>
<path d="M190.054 99.1452L197.616 118.597L189.479 124.5L181.669 105.019L190.054 99.1452Z" fill="white" stroke="white" stroke-width="3"/>
<path d="M207.468 87.9019L215.03 107.353L206.893 113.257L199.083 93.7758L207.468 87.9019Z" fill="white" stroke="white" stroke-width="3"/>
<path d="M216.406 81.1434C217.135 80.5952 217.908 80.0676 218.622 79.677C219.248 79.3349 219.711 79.1658 220.002 79.1102C220.104 79.169 220.256 79.2694 220.459 79.4348C220.922 79.8121 221.512 80.3946 222.196 81.1544C223.554 82.6653 225.155 84.7318 226.66 86.8649C228.164 88.9978 229.541 91.1545 230.462 92.8356C230.927 93.6839 231.248 94.362 231.418 94.833C231.42 94.8398 231.422 94.8471 231.424 94.8537C231.061 95.1822 230.49 95.6754 229.746 96.2926C228.653 97.1986 227.299 98.2891 225.975 99.3439C224.653 100.398 223.366 101.412 222.41 102.162C222.404 102.167 222.397 102.171 222.392 102.175L214.558 82.6362C215.032 82.227 215.684 81.6856 216.406 81.1434Z" fill="white" stroke="white" stroke-width="3"/>
</g>
<line y1="-0.5" x2="145.024" y2="-0.5" transform="matrix(0.921718 -0.38786 0.395102 0.918637 122.998 223.204)" stroke="white"/>
<line y1="-0.5" x2="145.024" y2="-0.5" transform="matrix(0.921718 -0.38786 0.395102 0.918637 132.334 246.085)" stroke="white"/>
<line y1="-0.5" x2="141.359" y2="-0.5" transform="matrix(0.921718 -0.38786 0.395102 0.918637 143.147 272.66)" stroke="white"/>
<defs>
<filter id="filter0_d_224_77" x="79.6314" y="77.5863" width="223.006" height="229.979" filterUnits="userSpaceOnUse" color-interpolation-filters="sRGB">
<feFlood flood-opacity="0" result="BackgroundImageFix"/>
<feColorMatrix in="SourceAlpha" type="matrix" values="0 0 0 0 0 0 0 0 0 0 0 0 0 0 0 0 0 0 127 0" result="hardAlpha"/>
<feOffset dy="4"/>
<feGaussianBlur stdDeviation="2"/>
<feComposite in2="hardAlpha" operator="out"/>
<feColorMatrix type="matrix" values="0 0 0 0 0 0 0 0 0 0 0 0 0 0 0 0 0 0 0.25 0"/>
<feBlend mode="normal" in2="BackgroundImageFix" result="effect1_dropShadow_224_77"/>
<feBlend mode="normal" in="SourceGraphic" in2="effect1_dropShadow_224_77" result="shape"/>
</filter>
</defs>
</svg>
