<svg width="577" height="577" viewBox="0 0 577 577" fill="none" xmlns="http://www.w3.org/2000/svg">
<circle cx="288.5" cy="288.5" r="288.5" fill="#FFDFE8"/>
<path d="M233.542 353.199C176.906 307.89 79.3173 275.215 61.4553 299.612C56.1456 306.865 55.0324 317.274 56.7422 329.237C113.288 328.8 149.538 343.686 200.528 398.508C210.738 409.484 221.538 422.062 233.21 436.438C233.417 436.693 233.485 437.038 233.393 437.354C226.165 462.116 223.662 480.047 229.462 497.839C233.387 509.878 241.113 521.853 253.749 535.836C254.131 536.259 254.8 536.268 255.2 535.863C278.355 512.383 277.522 493.139 269.702 456.451C324.349 475.1 359.225 474.004 428.283 451.659C492.197 368.208 496.206 317.392 446.926 220.131C446.725 219.735 446.813 219.232 447.136 218.927C487.86 180.449 489.387 153.987 480.763 105.131C480.658 104.538 480.045 104.162 479.471 104.345C448.184 114.318 432.162 127.437 406.343 159.419C406.168 159.636 405.9 159.776 405.621 159.795C362.909 162.699 341.922 167.41 317.689 186.889C317.204 187.279 317.198 188.028 317.672 188.433C350.698 216.642 369.933 229.416 406.935 229.906C443.954 299.589 434.589 347.797 362.136 378.436C362.088 378.456 362.035 378.474 361.985 378.487C309.314 391.57 290.15 398.486 233.542 353.199Z" fill="#0A2D4A"/>
<path d="M98.051 418.984C80.6028 394.491 60.7842 357.52 56.7422 329.237M406.935 229.906C443.954 299.589 434.589 347.797 362.136 378.436C362.088 378.456 362.035 378.474 361.985 378.487C309.314 391.57 290.15 398.486 233.542 353.199C176.906 307.89 79.3173 275.215 61.4553 299.612C56.1456 306.865 55.0324 317.274 56.7422 329.237M406.935 229.906C401.513 214.906 400.154 206.895 402.579 193.746M406.935 229.906C369.933 229.416 350.698 216.642 317.672 188.433C317.198 188.028 317.204 187.279 317.689 186.889C341.922 167.41 362.909 162.699 405.621 159.795C405.9 159.776 406.168 159.636 406.343 159.419C432.162 127.437 448.184 114.318 479.471 104.345C480.045 104.162 480.658 104.538 480.763 105.131C489.387 153.987 487.86 180.449 447.136 218.927C446.813 219.232 446.725 219.735 446.926 220.131C496.206 317.392 492.197 368.208 428.283 451.659M428.283 451.659C376.837 497.988 343.196 510.102 274.058 504.809M428.283 451.659C359.225 474.004 324.349 475.1 269.702 456.451M269.702 456.451C261.65 447.32 263.827 440.598 269.702 428.133M269.702 456.451C277.522 493.139 278.355 512.383 255.2 535.863C254.8 536.268 254.131 536.259 253.749 535.836C241.113 521.853 233.387 509.878 229.462 497.839M229.462 497.839C223.662 480.047 226.165 462.116 233.393 437.354C233.485 437.038 233.417 436.693 233.21 436.438C221.538 422.062 210.738 409.484 200.528 398.508M229.462 497.839C203.407 496.937 186.064 489.208 153.38 470.828M56.7422 329.237C113.288 328.8 149.538 343.686 200.528 398.508M200.528 398.508L216.551 389.359" stroke="#2F83A2" stroke-width="18" stroke-linecap="round"/>
<circle cx="121.141" cy="445.995" r="8.64891" fill="#0A2D4A" stroke="#2F83A2"/>
<path d="M209.333 104.001C205.143 104.027 200.953 104.376 197.071 104.965C197.047 104.969 197.024 104.973 197 104.976M209.333 104.001C213.196 103.978 217.059 104.23 220.679 104.824C225.146 105.557 228.343 109.25 229.518 113.633C236.321 139.012 243.336 146.102 268.812 139.855C273.363 138.739 278.36 139.705 281.385 143.293C284.547 147.043 286.495 150.616 288.03 155.062C289.578 159.545 287.928 164.412 284.699 167.881C266.306 187.645 267.243 201.995 285.155 221.361C288.342 224.806 289.942 229.628 288.417 234.07C286.878 238.554 284.925 242.149 281.743 245.922C278.719 249.509 273.723 250.475 269.171 249.363C243.653 243.126 235.256 249.901 228.273 274.791C226.96 279.474 223.387 283.306 218.589 284.035C211.127 285.167 202.527 285.413 194.982 284.176C190.514 283.443 187.337 279.744 186.07 275.387C178.673 249.947 167.975 242.754 141.832 249.019C137.275 250.111 132.281 249.148 129.257 245.56C126.075 241.787 124.122 238.193 122.583 233.709C121.058 229.267 122.658 224.444 125.845 220.999C143.757 201.634 144.694 187.284 126.301 167.519C123.072 164.05 121.421 159.184 122.97 154.7C124.504 150.255 126.453 146.681 129.615 142.931C132.64 139.344 137.633 138.378 142.189 139.476C168.27 145.76 179.785 139.096 187.313 114.188C188.713 109.556 192.239 105.732 197 104.976M209.333 104.001C205.118 104.027 200.902 104.381 197 104.976M197 104.976C199.317 104.35 194.266 105.394 197 104.976ZM240.016 194.056C240.016 213.412 224.365 229.103 205.057 229.103C185.75 229.103 170.099 213.412 170.099 194.056C170.099 174.701 185.75 159.01 205.057 159.01C224.365 159.01 240.016 174.701 240.016 194.056Z" stroke="#D56986" stroke-width="18" stroke-linecap="round"/>
</svg>
