<svg width="577" height="577" viewBox="0 0 577 577" fill="none" xmlns="http://www.w3.org/2000/svg">
<circle cx="288.5" cy="288.5" r="288" fill="#B2CEE0" stroke="#0A2D4A"/>
<path d="M233.542 353.199C176.906 307.89 79.3173 275.215 61.4553 299.612C56.1456 306.865 55.0324 317.274 56.7422 329.237C113.288 328.8 149.538 343.686 200.528 398.508C210.738 409.484 221.538 422.062 233.21 436.438C233.417 436.693 233.485 437.038 233.393 437.354C226.165 462.116 223.662 480.047 229.462 497.839C233.387 509.878 241.113 521.853 253.749 535.836C254.131 536.259 254.8 536.268 255.2 535.863C278.355 512.383 277.522 493.139 269.702 456.451C324.349 475.1 359.225 474.004 428.283 451.659C492.197 368.208 496.206 317.392 446.926 220.131C446.725 219.735 446.813 219.232 447.136 218.927C487.86 180.449 489.387 153.987 480.763 105.131C480.658 104.538 480.045 104.162 479.471 104.345C448.184 114.318 432.162 127.437 406.343 159.419C406.168 159.636 405.9 159.776 405.621 159.795C362.909 162.699 341.922 167.41 317.689 186.889C317.204 187.279 317.198 188.028 317.672 188.433C350.698 216.642 369.933 229.416 406.935 229.906C443.954 299.589 434.589 347.797 362.136 378.436C362.088 378.456 362.035 378.474 361.985 378.487C309.314 391.57 290.15 398.486 233.542 353.199Z" fill="#2F83A2"/>
<path d="M98.051 418.984C80.6028 394.491 60.7842 357.52 56.7422 329.237M406.935 229.906C443.954 299.589 434.589 347.797 362.136 378.436C362.088 378.456 362.035 378.474 361.985 378.487C309.314 391.57 290.15 398.486 233.542 353.199C176.906 307.89 79.3173 275.215 61.4553 299.612C56.1456 306.865 55.0324 317.274 56.7422 329.237M406.935 229.906C401.513 214.906 400.154 206.895 402.579 193.746M406.935 229.906C369.933 229.416 350.698 216.642 317.672 188.433C317.198 188.028 317.204 187.279 317.689 186.889C341.922 167.41 362.909 162.699 405.621 159.795C405.9 159.776 406.168 159.636 406.343 159.419C432.162 127.437 448.184 114.318 479.471 104.345C480.045 104.162 480.658 104.538 480.763 105.131C489.387 153.987 487.86 180.449 447.136 218.927C446.813 219.232 446.725 219.735 446.926 220.131C496.206 317.392 492.197 368.208 428.283 451.659M428.283 451.659C376.837 497.988 343.196 510.102 274.058 504.809M428.283 451.659C359.225 474.004 324.349 475.1 269.702 456.451M269.702 456.451C261.65 447.32 263.827 440.598 269.702 428.133M269.702 456.451C277.522 493.139 278.355 512.383 255.2 535.863C254.8 536.268 254.131 536.259 253.749 535.836C241.113 521.853 233.387 509.878 229.462 497.839M229.462 497.839C223.662 480.047 226.165 462.116 233.393 437.354C233.485 437.038 233.417 436.693 233.21 436.438C221.538 422.062 210.738 409.484 200.528 398.508M229.462 497.839C203.407 496.937 186.064 489.208 153.38 470.828M56.7422 329.237C113.288 328.8 149.538 343.686 200.528 398.508M200.528 398.508L216.551 389.359" stroke="#0A2D4A" stroke-width="18" stroke-linecap="round"/>
<circle cx="121.141" cy="445.995" r="8.64891" fill="#2F83A2" stroke="#0A2D4A"/>
</svg>
