<svg width="283" height="283" viewBox="0 0 283 283" fill="none" xmlns="http://www.w3.org/2000/svg">
<circle cx="141.5" cy="141.5" r="141.5" fill="#F97979"/>
<g filter="url(#filter0_d_224_76)">
<path d="M227 149.91C227 197.706 188.049 236.452 140 236.452C91.9512 236.452 53 197.706 53 149.91C53 102.115 91.9512 83.9041 140 83.9041C188.049 83.9041 227 102.115 227 149.91Z" fill="#EF2427"/>
</g>
<g filter="url(#filter1_d_224_76)">
<path d="M137.222 64.6739C142.05 57.7195 153.462 40.1943 162.24 41.0288C171.019 41.8633 174.091 70.5157 171.019 75.8011C167.946 81.0864 151.737 99.4463 142.05 100.559C132.362 101.672 132.394 71.6284 137.222 64.6739Z" fill="#3D931B"/>
</g>
<g filter="url(#filter2_d_224_76)">
<path d="M142.778 64.6739C137.95 57.7195 126.538 40.1943 117.76 41.0288C108.981 41.8633 105.909 70.5157 108.981 75.8011C112.054 81.0864 128.263 99.4463 137.95 100.559C147.638 101.672 147.606 71.6284 142.778 64.6739Z" fill="#3D931B"/>
</g>
<path d="M128 69C123.172 62.0456 126.538 40.1943 117.76 41.0288C108.981 41.8634 105.909 70.5156 108.981 75.801C112.054 81.0864 128.263 99.4462 137.95 100.559C147.638 101.671 132.828 75.9544 128 69Z" fill="#2E6518"/>
<path d="M213.5 132.715C213.5 144.037 204.546 153.215 193.5 153.215C182.454 153.215 191 142.537 191 131.215C191 119.893 182.454 112.215 193.5 112.215C204.546 112.215 213.5 121.393 213.5 132.715Z" fill="#FF7D7F"/>
<defs>
<filter id="filter0_d_224_76" x="49" y="83.9041" width="182" height="160.548" filterUnits="userSpaceOnUse" color-interpolation-filters="sRGB">
<feFlood flood-opacity="0" result="BackgroundImageFix"/>
<feColorMatrix in="SourceAlpha" type="matrix" values="0 0 0 0 0 0 0 0 0 0 0 0 0 0 0 0 0 0 127 0" result="hardAlpha"/>
<feOffset dy="4"/>
<feGaussianBlur stdDeviation="2"/>
<feComposite in2="hardAlpha" operator="out"/>
<feColorMatrix type="matrix" values="0 0 0 0 0 0 0 0 0 0 0 0 0 0 0 0 0 0 0.25 0"/>
<feBlend mode="normal" in2="BackgroundImageFix" result="effect1_dropShadow_224_76"/>
<feBlend mode="normal" in="SourceGraphic" in2="effect1_dropShadow_224_76" result="shape"/>
</filter>
<filter id="filter1_d_224_76" x="130.041" y="41" width="46.137" height="67.5891" filterUnits="userSpaceOnUse" color-interpolation-filters="sRGB">
<feFlood flood-opacity="0" result="BackgroundImageFix"/>
<feColorMatrix in="SourceAlpha" type="matrix" values="0 0 0 0 0 0 0 0 0 0 0 0 0 0 0 0 0 0 127 0" result="hardAlpha"/>
<feOffset dy="4"/>
<feGaussianBlur stdDeviation="2"/>
<feComposite in2="hardAlpha" operator="out"/>
<feColorMatrix type="matrix" values="0 0 0 0 0 0 0 0 0 0 0 0 0 0 0 0 0 0 0.25 0"/>
<feBlend mode="normal" in2="BackgroundImageFix" result="effect1_dropShadow_224_76"/>
<feBlend mode="normal" in="SourceGraphic" in2="effect1_dropShadow_224_76" result="shape"/>
</filter>
<filter id="filter2_d_224_76" x="103.822" y="41" width="46.137" height="67.5891" filterUnits="userSpaceOnUse" color-interpolation-filters="sRGB">
<feFlood flood-opacity="0" result="BackgroundImageFix"/>
<feColorMatrix in="SourceAlpha" type="matrix" values="0 0 0 0 0 0 0 0 0 0 0 0 0 0 0 0 0 0 127 0" result="hardAlpha"/>
<feOffset dy="4"/>
<feGaussianBlur stdDeviation="2"/>
<feComposite in2="hardAlpha" operator="out"/>
<feColorMatrix type="matrix" values="0 0 0 0 0 0 0 0 0 0 0 0 0 0 0 0 0 0 0.25 0"/>
<feBlend mode="normal" in2="BackgroundImageFix" result="effect1_dropShadow_224_76"/>
<feBlend mode="normal" in="SourceGraphic" in2="effect1_dropShadow_224_76" result="shape"/>
</filter>
</defs>
</svg>
