<svg width="566" height="566" viewBox="0 0 566 566" fill="none" xmlns="http://www.w3.org/2000/svg">
<g filter="url(#filter0_d_224_24)">
<path d="M227.862 224.887C234.443 234.608 273.029 223.853 256.2 198.464M199.709 258.532C206.291 268.253 244.69 250.277 227.861 224.888" stroke="#FFC77E" stroke-width="3"/>
<circle cx="282.734" cy="282.734" r="141.5" fill="#FFC77E"/>
<g filter="url(#filter1_d_224_24)">
<path d="M398.754 327.002C390.603 319.336 377.179 320.37 368.77 329.311C360.493 338.112 360.161 351.294 367.927 359.016L368.303 359.38L366.089 361.735C357.938 354.069 344.513 355.103 336.104 364.045C327.827 372.846 327.495 386.029 335.261 393.75L335.638 394.114L330.378 399.707L162.933 242.233L169.874 234.853C177.876 238.756 188.29 236.778 195.259 229.368C202.228 221.957 203.566 211.44 199.179 203.692L202.539 200.119C210.541 204.023 220.955 202.044 227.925 194.634C234.894 187.223 236.232 176.707 231.844 168.959L236.293 164.229L403.737 321.703L398.754 327.002Z" fill="#FCA129"/>
</g>
<rect x="257.297" y="194.797" width="157.369" height="4.79017" transform="rotate(43.2424 257.297 194.797)" fill="#FFC77E"/>
<rect x="334.526" y="267.428" width="51.352" height="4.79017" transform="rotate(43.2424 334.526 267.428)" fill="#FFEBD1"/>
<rect x="200.102" y="255.614" width="157.369" height="4.79017" transform="rotate(43.2424 200.102 255.614)" fill="#FFC77E"/>
<path d="M341.071 337.337C334.213 327.348 295.07 337.676 312.616 363.759M369.224 303.567C362.365 293.578 323.526 311.253 341.072 337.336" stroke="#FFEBD1" stroke-width="3"/>
<path d="M247.973 175.696L311.024 234.992L313.677 384.502L243.387 318.397L247.973 175.696Z" fill="#FFC77E" fill-opacity="0.5"/>
</g>
<defs>
<filter id="filter0_d_224_24" x="137.234" y="141.234" width="291" height="291" filterUnits="userSpaceOnUse" color-interpolation-filters="sRGB">
<feFlood flood-opacity="0" result="BackgroundImageFix"/>
<feColorMatrix in="SourceAlpha" type="matrix" values="0 0 0 0 0 0 0 0 0 0 0 0 0 0 0 0 0 0 127 0" result="hardAlpha"/>
<feOffset dy="4"/>
<feGaussianBlur stdDeviation="2"/>
<feComposite in2="hardAlpha" operator="out"/>
<feColorMatrix type="matrix" values="0 0 0 0 0 0 0 0 0 0 0 0 0 0 0 0 0 0 0.25 0"/>
<feBlend mode="normal" in2="BackgroundImageFix" result="effect1_dropShadow_224_24"/>
<feBlend mode="normal" in="SourceGraphic" in2="effect1_dropShadow_224_24" result="shape"/>
</filter>
<filter id="filter1_d_224_24" x="158.933" y="164.229" width="248.804" height="243.478" filterUnits="userSpaceOnUse" color-interpolation-filters="sRGB">
<feFlood flood-opacity="0" result="BackgroundImageFix"/>
<feColorMatrix in="SourceAlpha" type="matrix" values="0 0 0 0 0 0 0 0 0 0 0 0 0 0 0 0 0 0 127 0" result="hardAlpha"/>
<feOffset dy="4"/>
<feGaussianBlur stdDeviation="2"/>
<feComposite in2="hardAlpha" operator="out"/>
<feColorMatrix type="matrix" values="0 0 0 0 0 0 0 0 0 0 0 0 0 0 0 0 0 0 0.25 0"/>
<feBlend mode="normal" in2="BackgroundImageFix" result="effect1_dropShadow_224_24"/>
<feBlend mode="normal" in="SourceGraphic" in2="effect1_dropShadow_224_24" result="shape"/>
</filter>
</defs>
</svg>
